<svg width="60" height="70" viewBox="0 0 60 70" xmlns="http://www.w3.org/2000/svg">
    <!-- Crown (wider with multiple cusps) -->
    <path d="M 5 5 Q 0 5 0 10 L 0 25 Q 0 30 5 30 L 55 30 Q 60 30 60 25 L 60 10 Q 60 5 55 5 Q 50 5 45 8 Q 40 5 35 8 Q 30 5 25 8 Q 20 5 15 8 Q 10 5 5 5 Z" 
          fill="currentColor" stroke="none"/>
    <!-- Multiple cusps -->
    <circle cx="12" cy="15" r="3" fill="currentColor" opacity="0.9"/>
    <circle cx="25" cy="12" r="3" fill="currentColor" opacity="0.9"/>
    <circle cx="35" cy="12" r="3" fill="currentColor" opacity="0.9"/>
    <circle cx="48" cy="15" r="3" fill="currentColor" opacity="0.9"/>
    <!-- Roots (two) -->
    <path d="M 15 30 L 15 60 L 22 60 L 22 30 Z" 
          fill="currentColor" stroke="none" opacity="0.8"/>
    <path d="M 38 30 L 38 60 L 45 60 L 45 30 Z" 
          fill="currentColor" stroke="none" opacity="0.8"/>
</svg>